<svg xmlns="http://www.w3.org/2000/svg" xmlns:xlink="http://www.w3.org/1999/xlink" width="256" zoomAndPan="magnify" viewBox="0 0 192 199.92" height="256" preserveAspectRatio="xMidYMid meet" version="1.2"><defs><clipPath id="4bc0e210e3"><path d="M 8.152344 23.707031 L 183.582031 23.707031 L 183.582031 168.398438 L 8.152344 168.398438 Z M 8.152344 23.707031 "/></clipPath></defs><g id="d40e86f327"><g clip-rule="nonzero" clip-path="url(#4bc0e210e3)"><path style=" stroke:none;fill-rule:nonzero;fill:#000000;fill-opacity:1;" d="M 174.992188 102.386719 C 174.550781 58.824219 139.085938 23.707031 95.421875 23.707031 C 51.757812 23.707031 16.292969 59.046875 15.851562 102.609375 C 11.640625 105.941406 8.535156 110.164062 8.535156 115.5 L 8.535156 141.503906 C 8.535156 151.0625 18.511719 156.839844 26.269531 160.171875 L 26.269531 162.617188 C 26.269531 165.730469 29.8125 168.398438 34.027344 168.398438 L 36.242188 168.398438 C 40.453125 168.398438 44 165.953125 44 162.617188 L 44 95.273438 C 44 92.160156 40.453125 89.496094 36.242188 89.496094 L 34.027344 89.496094 C 32.695312 89.496094 31.367188 89.71875 30.257812 90.382812 C 36.464844 59.710938 63.503906 36.597656 95.867188 36.597656 C 128.226562 36.597656 155.265625 59.710938 161.472656 90.382812 C 160.363281 89.9375 159.035156 89.496094 157.707031 89.496094 L 155.488281 89.496094 C 151.277344 89.496094 147.730469 91.941406 147.730469 95.273438 L 147.730469 162.617188 C 147.730469 165.730469 151.277344 168.398438 155.488281 168.398438 L 157.707031 168.398438 C 161.917969 168.398438 165.460938 165.953125 165.460938 162.617188 L 165.460938 159.953125 C 173.21875 156.617188 183.195312 150.839844 183.195312 141.28125 L 183.195312 115.277344 C 182.53125 109.941406 179.203125 105.71875 174.992188 102.386719 Z M 174.992188 102.386719 "/></g></g></svg>