<svg xmlns="http://www.w3.org/2000/svg" width="16.005" height="20.229" viewBox="0 0 16.005 20.229">
  <path d="M1.545,18.417a6.671,6.671,0,0,1,.05-8.6L9.088,1.343a3.737,3.737,0,0,1,5.74,0,4.955,4.955,0,0,1,0,6.412L8.3,15.138A2.493,2.493,0,0,1,4.438,15.1a3.3,3.3,0,0,1,.052-4.226l5.135-5.8a.534.534,0,0,1,.808-.01l.817.884a.68.68,0,0,1,.009.894l-5.135,5.8a.577.577,0,0,0-.023.723.357.357,0,0,0,.56.007l6.532-7.383a2.23,2.23,0,0,0,0-2.876,1.6,1.6,0,0,0-2.471,0L3.229,11.588a3.944,3.944,0,0,0-.043,5.07,2.849,2.849,0,0,0,4.4.011L13.73,9.715a.534.534,0,0,1,.808-.01l.817.884a.68.68,0,0,1,.009.894L9.218,18.437a4.984,4.984,0,0,1-7.673-.019Z" transform="translate(0 0)" fill="#ba0c2f"/>
</svg>