<svg xmlns="http://www.w3.org/2000/svg" width="18" height="13.5" viewBox="0 0 18 13.5">
  <path d="M17.578,8.438h-2.1l-.585-1.463A3.918,3.918,0,0,0,11.233,4.5H6.768A3.919,3.919,0,0,0,3.112,6.975L2.527,8.438H.422a.422.422,0,0,0-.409.524l.211.844a.422.422,0,0,0,.409.32h.706a2.234,2.234,0,0,0-.776,1.688V13.5a2.232,2.232,0,0,0,.563,1.474v1.9A1.125,1.125,0,0,0,2.25,18H3.375A1.125,1.125,0,0,0,4.5,16.875V15.75h9v1.125A1.125,1.125,0,0,0,14.625,18H15.75a1.125,1.125,0,0,0,1.125-1.125v-1.9a2.23,2.23,0,0,0,.563-1.474V11.813a2.235,2.235,0,0,0-.776-1.688h.706a.422.422,0,0,0,.409-.32l.211-.844a.422.422,0,0,0-.41-.524ZM5.2,7.811A1.688,1.688,0,0,1,6.768,6.75h4.465A1.688,1.688,0,0,1,12.8,7.811l.7,1.752h-9ZM3.375,13.493A1.061,1.061,0,0,1,2.25,12.371,1.061,1.061,0,0,1,3.375,11.25a2.164,2.164,0,0,1,1.688,1.682C5.063,13.605,4.05,13.493,3.375,13.493Zm11.25,0c-.675,0-1.688.112-1.688-.561a2.164,2.164,0,0,1,1.688-1.682,1.061,1.061,0,0,1,1.125,1.121,1.061,1.061,0,0,1-1.125,1.121Z" transform="translate(0 -4.5)" fill="#ba0c2f"/>
</svg>