<svg xmlns="http://www.w3.org/2000/svg" xmlns:xlink="http://www.w3.org/1999/xlink" width="256" zoomAndPan="magnify" viewBox="0 0 192 199.92" height="256" preserveAspectRatio="xMidYMid meet" version="1.2"><defs><clipPath id="809fe60ec3"><path d="M 0.0390625 19.191406 L 191.960938 19.191406 L 191.960938 170.632812 L 0.0390625 170.632812 Z M 0.0390625 19.191406 "/></clipPath></defs><g id="7ab3ecf893"><g clip-rule="nonzero" clip-path="url(#809fe60ec3)"><path style=" stroke:none;fill-rule:nonzero;fill:#000000;fill-opacity:1;" d="M 182.351562 44.785156 L 142.128906 44.785156 L 140.769531 35.15625 L 139.726562 28.664062 C 139.304688 26.050781 137.921875 23.882812 135.753906 22.070312 C 133.53125 20.21875 131.15625 19.246094 128.542969 19.246094 L 63.144531 19.246094 C 60.53125 19.246094 58.128906 20.1875 55.933594 22.070312 C 53.738281 23.957031 52.574219 26.167969 52.171875 28.664062 L 51.128906 35.15625 L 49.664062 44.785156 L 9.648438 44.785156 C 4.320312 44.785156 0.0390625 49.078125 0.0390625 54.207031 L 0.0390625 160.980469 C 0.0390625 166.316406 4.320312 170.609375 9.648438 170.609375 L 182.347656 170.609375 C 187.675781 170.609375 191.960938 166.316406 191.960938 160.980469 L 191.960938 54.207031 C 191.960938 49.078125 187.675781 44.785156 182.347656 44.785156 Z M 180.367188 158.992188 L 11.53125 158.992188 L 11.53125 56.300781 L 49.667969 56.300781 C 55.414062 56.300781 60.375 52.019531 61.160156 46.464844 L 62.515625 36.832031 L 63.5625 30.867188 L 128.335938 30.867188 L 129.277344 36.832031 L 130.738281 46.464844 C 131.582031 52.011719 136.589844 56.300781 142.128906 56.300781 L 180.363281 56.300781 L 180.363281 158.992188 Z M 180.367188 158.992188 "/></g><path style=" stroke:none;fill-rule:nonzero;fill:#000000;fill-opacity:1;" d="M 161.769531 83.621094 C 166.78125 83.621094 170.960938 79.332031 170.960938 74.308594 C 170.960938 69.179688 166.886719 64.886719 161.769531 64.886719 C 156.648438 64.886719 152.574219 69.179688 152.574219 74.308594 C 152.574219 79.332031 156.753906 83.621094 161.769531 83.621094 Z M 161.769531 83.621094 "/><path style=" stroke:none;fill-rule:nonzero;fill:#000000;fill-opacity:1;" d="M 95.84375 59.335938 C 84.039062 59.335938 73.800781 63.628906 65.335938 72.105469 C 56.875 80.585938 52.589844 90.84375 52.589844 102.675781 C 52.589844 114.5 56.875 124.761719 65.335938 133.238281 C 73.800781 141.71875 84.039062 145.730469 95.84375 145.90625 C 119.25 146.253906 139.371094 125.914062 139.09375 102.675781 C 138.953125 90.738281 134.8125 80.585938 126.351562 72.105469 C 117.886719 63.628906 107.753906 59.335938 95.84375 59.335938 Z M 118.199219 125.179688 C 112.039062 131.355469 104.621094 134.390625 95.84375 134.390625 C 87.171875 134.390625 79.753906 131.355469 73.589844 125.179688 C 67.425781 119.003906 64.398438 111.464844 64.398438 102.675781 C 64.398438 93.984375 67.425781 86.449219 73.589844 80.269531 C 79.753906 74.097656 87.171875 70.957031 95.84375 70.957031 C 104.621094 70.957031 112.039062 74.097656 118.199219 80.269531 C 124.367188 86.449219 127.5 93.984375 127.5 102.675781 C 127.5 111.464844 124.367188 119.003906 118.199219 125.179688 Z M 118.199219 125.179688 "/></g></svg>