<?xml version="1.0" encoding="UTF-8"?><svg id="b" xmlns="http://www.w3.org/2000/svg" viewBox="0 0 18 18"><g id="c"><path d="M15.23,1.78h-1.67v-.78c0-.55-.45-1-1-1s-1,.45-1,1v.78h-5.11v-.78c0-.55-.45-1-1-1s-1,.45-1,1v.78h-1.64C1.37,1.72.14,2.8.01,4.29h17.98c-.1-1.46-1.36-2.58-2.77-2.51Z" fill="#ba0c2f"/><path d="M18,7.4s0,0,0,0v-2.11H0v2.11s0,0,0,0,0,0,0,0v8.08c.09,1.42,1.28,2.52,2.63,2.52.05,0,.09,0,.14,0h12.39c1.48.09,2.74-1.05,2.83-2.58V7.41s0,0,0,0ZM12.51,11.59c0,.28-.22.5-.5.5h-2.26v2.26c0,.28-.22.5-.5.5h-.5c-.28,0-.5-.22-.5-.5v-2.26h-2.26c-.28,0-.5-.22-.5-.5v-.5c0-.28.22-.5.5-.5h2.26v-2.26c0-.28.22-.5.5-.5h.5c.28,0,.5.22.5.5v2.26h2.26c.28,0,.5.23.5.5v.5Z" fill="#ba0c2f"/></g></svg>