<svg xmlns="http://www.w3.org/2000/svg" width="28.003" height="28.003" viewBox="0 0 28.003 28.003">
  <path d="M28.2,3H11.4A2.808,2.808,0,0,0,8.6,5.8V22.6a2.808,2.808,0,0,0,2.8,2.8H28.2A2.808,2.808,0,0,0,31,22.6V5.8A2.808,2.808,0,0,0,28.2,3ZM16.3,13.5a2.1,2.1,0,0,1-2.1,2.1H12.8v2.8H10.7V10h3.5a2.1,2.1,0,0,1,2.1,2.1Zm7,2.8a2.1,2.1,0,0,1-2.1,2.1H17.7V10h3.5a2.1,2.1,0,0,1,2.1,2.1Zm5.6-4.2H26.8v1.4h2.1v2.1H26.8v2.8H24.7V10h4.2ZM12.8,13.5h1.4V12.1H12.8Zm-7-4.9H3V28.2A2.808,2.808,0,0,0,5.8,31H25.4V28.2H5.8Zm14,7.7h1.4V12.1H19.8Z" transform="translate(-3 -3)" fill="#b20b2e"/>
</svg>