<svg xmlns="http://www.w3.org/2000/svg" width="18" height="18" viewBox="0 0 18 18">
  <path id="Icon_awesome-pencil-alt" data-name="Icon awesome-pencil-alt" d="M17.506,5,15.885,6.619a.422.422,0,0,1-.6,0l-3.9-3.9a.422.422,0,0,1,0-.6L13.006.5a1.691,1.691,0,0,1,2.387,0l2.113,2.113A1.685,1.685,0,0,1,17.506,5ZM9.993,3.511.76,12.744.015,17.016a.845.845,0,0,0,.977.977l4.272-.749L14.5,8.012a.422.422,0,0,0,0-.6l-3.9-3.9a.427.427,0,0,0-.6,0ZM4.364,11.953a.49.49,0,0,1,0-.7L9.778,5.842a.492.492,0,0,1,.7.7L5.06,11.953A.49.49,0,0,1,4.364,11.953ZM3.095,14.91H4.782v1.276l-2.268.4L1.421,15.49l.4-2.268H3.095Z" transform="translate(-0.002 -0.005)" fill="#fff"/>
</svg>