<?xml version="1.0" encoding="UTF-8"?>
<svg xmlns="http://www.w3.org/2000/svg" version="1.1" viewBox="0 0 45.9 45.9">
  <defs>
    <style>
      .cls-1 {
        fill: #231f20;
      }
    </style>
  </defs>
  <!-- Generator: Adobe Illustrator 28.7.1, SVG Export Plug-In . SVG Version: 1.2.0 Build 142)  -->
  <g>
    <g id="Group_20293">
      <g>
        <polygon class="cls-1" points="13.9 16.8 13.9 19.1 22.9 24.8 32 19.1 32 16.8 22.9 22.5 13.9 16.8"/>
        <path class="cls-1" d="M22.9,0C10.3,0,0,10.3,0,22.9s10.3,22.9,22.9,22.9,22.9-10.3,22.9-22.9S35.6,0,22.9,0ZM34.3,30.5c0,1.3-1,2.3-2.3,2.3H13.9c-1.3,0-2.3-1-2.3-2.3v-13.6c0-1.3,1-2.3,2.3-2.3h18.2c1.3,0,2.3,1,2.3,2.3v13.6Z"/>
      </g>
    </g>
  </g>
</svg>