<svg xmlns="http://www.w3.org/2000/svg" width="45.859" height="45.86" viewBox="0 0 45.859 45.86">
  <path d="M45.86,23.492A22.933,22.933,0,0,1,16.143,45.4a25.775,25.775,0,0,0,2.848-6.01c.277-1.073,1.424-5.455,1.424-5.455.749,1.424,2.931,2.635,5.252,2.635,6.916,0,11.9-6.361,11.9-14.266,0-7.572-6.185-13.24-14.137-13.24-9.893,0-15.154,6.639-15.154,13.878,0,3.366,1.794,7.554,4.651,8.885.435.2.666.111.767-.305.074-.314.462-1.877.638-2.6a.686.686,0,0,0-.157-.656,9.03,9.03,0,0,1-1.692-5.233,9.923,9.923,0,0,1,10.355-9.949c5.631,0,9.579,3.837,9.579,9.329,0,6.2-3.134,10.5-7.212,10.5a3.326,3.326,0,0,1-3.393-4.142c.647-2.728,1.9-5.668,1.9-7.637,0-1.757-.943-3.227-2.9-3.227-2.3,0-4.151,2.376-4.151,5.566a8.262,8.262,0,0,0,.684,3.4s-2.265,9.6-2.681,11.391a22.2,22.2,0,0,0-.083,6.583A22.932,22.932,0,1,1,45.86,23.492Z" transform="translate(0 -0.563)" fill="#e60023"/>
</svg>