<svg xmlns="http://www.w3.org/2000/svg" width="45.859" height="45.86" viewBox="0 0 45.859 45.86">
  <path d="M18.453,28.069a2.288,2.288,0,1,1,2.274-2.274A2.291,2.291,0,0,1,18.453,28.069Zm27.969-4.577A22.93,22.93,0,1,1,23.492.563,22.926,22.926,0,0,1,46.422,23.492ZM34.19,19.683a3.094,3.094,0,0,0-2.2.925,14.948,14.948,0,0,0-7.961-2.459l1.609-7.24,5.122,1.156a2.279,2.279,0,0,0,2.274,2.274,2.3,2.3,0,1,0-2.043-3.329L25.332,9.753a.546.546,0,0,0-.638.407l-1.766,7.988a15.082,15.082,0,0,0-7.905,2.478,3.06,3.06,0,1,0-3.56,4.863,6.673,6.673,0,0,0-.157,1.433c0,4.863,5.474,8.8,12.2,8.8,6.759,0,12.232-3.939,12.232-8.8a5.907,5.907,0,0,0-.176-1.461,3.051,3.051,0,0,0-1.378-5.779Zm-6.37,10.744c-1.683,1.683-7.036,1.655-8.654,0a.559.559,0,0,0-.767,0,.542.542,0,0,0,0,.8c2.108,2.108,8.072,2.108,10.189,0a.542.542,0,0,0,0-.8A.559.559,0,0,0,27.819,30.427Zm.712-6.934a2.288,2.288,0,1,0,2.3,2.3A2.285,2.285,0,0,0,28.531,23.492Z" transform="translate(-0.563 -0.563)" fill="#ff4500"/>
</svg>
