<svg xmlns="http://www.w3.org/2000/svg" width="45.56" height="45.574" viewBox="0 0 45.56 45.574">
  <path id="Path_1553" data-name="Path 1553" d="M20.586.26A22.811,22.811,0,0,0,1.167,29.367,22.782,22.782,0,1,0,28.354.793,22.327,22.327,0,0,0,20.586.26Zm.3,14.149c1.949,2.589,3.594,4.722,3.655,4.722S26.633,17,29.024,14.41l4.371-4.722h2.483l-.533.564c-.3.319-2.285,2.466-4.4,4.767s-4.188,4.538-4.6,4.95l-.73.777,5.712,7.6c3.138,4.188,5.712,7.66,5.712,7.723a33.456,33.456,0,0,1-4.143.121l-4.157-.015L24.866,31c-2.665-3.579-3.914-5.118-4.036-5.026-.091.076-2.255,2.407-4.813,5.178L11.371,36.19H10.2a4.543,4.543,0,0,1-1.187-.076c0-.045,2.422-2.7,5.376-5.879s5.377-5.849,5.407-5.894c.016-.062-2.406-3.367-5.376-7.342-2.97-3.96-5.407-7.235-5.407-7.266s1.873-.045,4.173-.045h4.173Zm0,0" transform="translate(-0.254 -0.134)"/>
  <path id="Path_1554" data-name="Path 1554" d="M41.311,37.712c.063.106,4.069,5.218,8.872,11.327L58.927,60.17l1.955.015a5.028,5.028,0,0,0,1.908-.151c-.015-.076-4.006-5.187-8.839-11.343L45.141,37.5H43.17c-1.637,0-1.971.031-1.859.212Zm0,0" transform="translate(-29.244 -26.037)"/>
</svg>