<?xml version="1.0" encoding="UTF-8"?>
<svg xmlns="http://www.w3.org/2000/svg" version="1.1" viewBox="0 0 45.9 45.9">
  <defs>
    <style>
      .cls-1 {
        fill: #231f20;
      }
    </style>
  </defs>
  <!-- Generator: Adobe Illustrator 28.7.1, SVG Export Plug-In . SVG Version: 1.2.0 Build 142)  -->
  <g>
    <g id="Group_20291">
      <g>
        <path class="cls-1" d="M28.6,20.5c-.9,0-.8.1-5.6,4.8-4.8-4.6-4.7-4.8-5.6-4.8-.9,0-1.6.7-1.6,1.6,0,1,0,.8,6.1,6.6.6.6,1.6.6,2.3,0h0c6-5.7,6.1-5.6,6.1-6.6,0-.9-.7-1.6-1.6-1.6Z"/>
        <path class="cls-1" d="M22.9,0C10.3,0,0,10.3,0,22.9s10.3,22.9,22.9,22.9,22.9-10.3,22.9-22.9S35.6,0,22.9,0ZM34.9,23.8c0,0,0,.1,0,.2,0,6.6-5.5,11.9-12.1,11.9-6.6,0-11.9-5.5-11.9-12.1v-7.2c0-1.2,1-2.2,2.2-2.2h19.6s0,0,0,0c1.2,0,2.1,1,2.1,2.2v7.2Z"/>
      </g>
    </g>
  </g>
</svg>