<?xml version="1.0" encoding="UTF-8"?>
<svg xmlns="http://www.w3.org/2000/svg" version="1.1" viewBox="0 0 45.9 45.9">
  <defs>
    <style>
      .cls-1 {
        fill: #231f20;
      }
    </style>
  </defs>
  <!-- Generator: Adobe Illustrator 28.7.1, SVG Export Plug-In . SVG Version: 1.2.0 Build 142)  -->
  <g>
    <g id="Group_20289">
      <path class="cls-1" d="M22.9,0C10.3,0,0,10.3,0,22.9s10.3,22.9,22.9,22.9,22.9-10.3,22.9-22.9S35.6,0,22.9,0ZM16.5,34.6h-4.8v-15.5h4.8v15.5ZM14.1,16.9c-1.5,0-2.8-1.2-2.8-2.8,0-1.5,1.2-2.8,2.8-2.8,1.5,0,2.8,1.2,2.8,2.8,0,1.5-1.2,2.8-2.8,2.8ZM34.6,34.6h-4.8v-7.6c0-1.8,0-4.1-2.5-4.1s-2.9,2-2.9,4v7.7h-4.8v-15.5h4.6v2.1h0c.9-1.6,2.7-2.6,4.6-2.5,4.9,0,5.8,3.2,5.8,7.4v8.5Z"/>
    </g>
  </g>
</svg>