<svg xmlns="http://www.w3.org/2000/svg" xmlns:xlink="http://www.w3.org/1999/xlink" width="256" zoomAndPan="magnify" viewBox="0 0 192 199.92" height="256" preserveAspectRatio="xMidYMid meet" version="1.2"><defs><clipPath id="4f07bb1697"><path d="M 12.300781 12.261719 L 179.484375 12.261719 L 179.484375 179.445312 L 12.300781 179.445312 Z M 12.300781 12.261719 "/></clipPath></defs><g id="528834aa61"><g clip-rule="nonzero" clip-path="url(#4f07bb1697)"><path style=" stroke:none;fill-rule:nonzero;fill:#000000;fill-opacity:1;" d="M 95.890625 12.261719 C 49.792969 12.261719 12.316406 49.769531 12.316406 95.871094 C 12.316406 141.96875 49.792969 179.445312 95.890625 179.445312 C 141.992188 179.445312 179.464844 141.96875 179.464844 95.871094 C 179.464844 49.769531 141.992188 12.261719 95.890625 12.261719 Z M 95.890625 165.90625 C 57.28125 165.90625 25.855469 134.480469 25.855469 95.871094 C 25.855469 57.257812 57.28125 25.835938 95.890625 25.835938 C 134.503906 25.835938 165.925781 57.257812 165.925781 95.871094 C 165.925781 134.480469 134.503906 165.90625 95.890625 165.90625 Z M 95.890625 165.90625 "/></g><path style=" stroke:none;fill-rule:nonzero;fill:#000000;fill-opacity:1;" d="M 133.097656 93.363281 L 73.863281 59.164062 C 71.957031 58.0625 69.550781 59.429688 69.550781 61.636719 L 69.550781 130.070312 C 69.550781 132.273438 71.957031 133.644531 73.863281 132.542969 L 133.132812 98.34375 C 135.039062 97.242188 135.039062 94.464844 133.097656 93.363281 Z M 133.097656 93.363281 "/></g></svg>